<?xml version="1.0" standalone="no"?>
<!DOCTYPE svg PUBLIC "-//W3C//DTD SVG 20010904//EN"
 "http://www.w3.org/TR/2001/REC-SVG-20010904/DTD/svg10.dtd">
<svg version="1.0" xmlns="http://www.w3.org/2000/svg"
 width="1024.000000pt" height="1024.000000pt" viewBox="0 0 1024.000000 1024.000000"
 preserveAspectRatio="xMidYMid meet">
<metadata>
Created by potrace 1.14, written by Peter Selinger 2001-2017
</metadata>
<g transform="translate(0.000000,1024.000000) scale(0.100000,-0.100000)"
fill="#000000" stroke="none">
<path d="M5126 10228 c-14 -39 -15 -48 -6 -48 5 0 8 -15 8 -32 -1 -18 0 -63 2
-99 1 -36 -2 -74 -8 -85 -16 -30 -487 -491 -582 -570 -200 -167 -381 -285
-610 -399 -248 -125 -427 -193 -701 -268 -371 -103 -594 -140 -949 -158 -244
-12 -413 -4 -490 22 -30 10 -60 19 -68 19 -10 0 -13 -181 -11 -1030 1 -817 -2
-1034 -12 -1046 -7 -9 -25 -14 -43 -12 -27 3 -32 8 -36 38 l-6 35 -7 -42 -7
-43 -134 0 -135 0 -3 -247 c-3 -275 -7 -295 -71 -333 -41 -25 -73 -25 -114 0
-64 38 -68 58 -71 333 l-3 247 -470 0 -469 0 0 -590 0 -590 95 0 c86 0 99 -3
135 -26 25 -17 49 -45 65 -77 l25 -51 0 -403 0 -403 95 0 c86 0 99 -3 135 -26
25 -17 49 -45 65 -77 25 -50 25 -54 25 -294 l0 -243 430 0 430 0 0 243 c0 240
0 244 25 294 31 62 91 106 138 101 27 -2 33 -8 35 -30 2 -16 7 -28 12 -28 4 0
11 -18 15 -40 4 -23 14 -54 22 -71 8 -16 12 -36 9 -44 -3 -8 -2 -15 2 -15 5 0
14 -17 21 -38 7 -20 31 -67 52 -103 21 -36 39 -69 39 -73 0 -4 15 -30 33 -59
18 -29 61 -113 94 -187 154 -339 267 -553 421 -800 23 -36 60 -96 84 -135 50
-81 231 -338 344 -487 209 -275 573 -654 973 -1013 441 -397 623 -552 814
-695 94 -70 174 -138 146 -123 -15 8 -126 81 -144 96 -33 26 -102 67 -112 67
-7 0 -13 3 -13 8 0 14 -52 32 -69 23 -23 -13 -59 7 -40 21 11 8 10 9 -3 5 -9
-3 -29 4 -45 16 -15 12 -32 25 -38 29 -5 4 -24 19 -40 32 -23 18 -35 22 -48
15 -9 -6 -22 -7 -28 -3 -8 4 -8 1 -1 -13 11 -19 43 -50 132 -123 23 -19 57
-50 76 -67 18 -18 38 -33 43 -33 5 0 18 -13 28 -30 9 -16 24 -30 31 -30 8 0
43 -32 79 -70 36 -39 70 -70 76 -70 6 0 34 -25 62 -55 29 -30 56 -55 61 -55
13 0 99 -90 113 -117 6 -13 18 -23 25 -23 8 0 21 -11 30 -25 30 -46 45 -39
184 95 49 48 179 150 190 150 4 0 18 14 30 30 13 17 29 30 36 30 8 0 21 11 30
25 9 14 23 25 31 25 8 0 22 11 31 25 9 14 21 25 28 25 6 0 24 13 41 29 16 17
50 49 74 73 24 24 47 42 51 41 4 -1 5 9 2 22 -3 18 -11 25 -28 25 -12 0 -26
-5 -30 -11 -3 -6 -15 -8 -26 -6 -12 4 -26 -2 -36 -14 -9 -10 -23 -19 -32 -19
-8 0 -35 -11 -59 -25 -23 -14 -49 -25 -55 -25 -7 0 -73 -41 -147 -90 -74 -50
-120 -79 -104 -65 32 28 37 32 191 137 55 38 123 87 152 110 28 24 95 77 148
118 78 61 293 238 493 405 217 180 740 687 904 875 51 58 100 114 110 125 11
11 31 36 45 55 15 19 30 37 34 40 3 3 23 29 43 58 20 29 43 61 51 70 8 9 29
35 45 57 33 45 54 72 102 130 29 35 67 88 180 247 15 21 27 40 27 43 0 2 22
39 48 82 26 43 55 92 64 108 46 86 57 107 66 118 5 7 19 28 29 47 22 39 106
194 125 231 7 14 23 34 36 47 12 12 22 32 22 43 0 16 5 20 19 16 16 -4 21 2
26 24 4 16 10 29 13 29 4 0 16 24 26 53 10 28 24 59 31 67 7 8 16 25 19 38 7
20 13 22 82 22 l74 0 0 233 c0 185 4 252 19 332 10 55 22 127 26 160 4 33 11
67 16 76 8 16 50 338 65 499 3 41 11 81 17 88 8 10 14 464 20 1455 10 1471 5
2132 -17 2140 -14 5 -169 -24 -176 -33 -10 -14 -262 -30 -463 -30 -218 0 -459
15 -492 30 -11 5 -92 19 -180 31 -88 11 -173 27 -190 34 -16 7 -73 23 -125 35
-52 13 -119 33 -148 46 -29 13 -58 24 -64 24 -15 0 -82 23 -88 31 -3 3 -30 13
-60 23 -137 44 -447 207 -562 296 -15 11 -41 25 -57 31 -17 6 -31 15 -31 19 0
12 -17 27 -95 85 -37 28 -84 65 -103 83 -19 17 -39 32 -45 32 -5 0 -18 11 -28
24 -11 14 -27 27 -37 30 -9 3 -22 16 -27 28 -6 13 -21 28 -34 35 -31 15 -301
284 -301 299 0 7 -11 19 -25 28 -14 9 -25 21 -25 27 0 5 -13 24 -30 42 -16 18
-37 46 -45 63 -8 16 -23 38 -35 49 -11 10 -20 28 -21 39 0 12 -6 39 -13 61
-10 30 -15 36 -20 23z m7 -405 c4 -38 7 -253 7 -478 0 -451 0 -453 -62 -493
-15 -9 -96 -67 -180 -128 -331 -241 -550 -376 -815 -500 -364 -172 -622 -257
-1018 -338 -257 -52 -499 -88 -607 -89 -93 -1 -97 -2 -93 -21 12 -59 15 -191
20 -851 8 -982 15 -1144 70 -1631 25 -219 45 -426 44 -459 l0 -60 -19 55 c-10
30 -19 65 -19 76 -1 24 -39 114 -48 114 -5 0 -3 -17 22 -185 17 -115 19 -178
6 -155 -10 17 -71 256 -71 279 0 34 -35 131 -47 128 -6 -1 -19 7 -28 18 -11
14 -18 16 -21 8 -3 -7 -17 -13 -31 -13 -20 0 -23 4 -18 20 4 11 2 20 -4 20
-20 0 1 29 27 38 14 4 27 17 28 28 2 10 10 55 19 99 17 83 16 183 -5 420 -5
61 -10 209 -12 330 -1 121 -4 272 -6 337 l-3 116 -47 5 c-26 2 -67 12 -92 21
-25 10 -85 22 -135 28 -161 18 -155 3 -170 433 -3 83 -8 188 -10 235 -20 342
-33 1306 -18 1321 6 6 19 6 35 0 61 -23 292 -34 474 -22 339 22 558 53 761
107 51 13 99 24 105 24 31 0 440 132 513 166 30 13 56 24 59 24 8 0 191 86
271 127 39 20 88 45 110 56 198 98 607 443 887 748 55 60 103 109 108 109 4 0
10 -30 13 -67z m711 -839 c11 -28 7 -35 -14 -24 -23 12 -27 40 -6 40 8 0 17
-7 20 -16z m-56 -46 c15 -15 16 -45 1 -54 -14 -8 -26 5 -34 39 -8 29 10 38 33
15z m92 -80 c0 -16 -3 -19 -11 -11 -6 6 -8 16 -5 22 11 17 16 13 16 -11z
m-746 -249 c8 -41 8 -2412 0 -2461 l-7 -38 -72 0 c-64 0 -77 3 -112 29 -81 58
-113 139 -113 282 l0 87 -182 7 c-136 5 -1484 2 -1690 -4 -25 -1 -26 -4 -31
-58 -5 -66 -49 -187 -79 -220 -24 -26 -75 -40 -91 -24 -6 6 -18 11 -26 12 -21
0 -55 45 -69 89 -6 19 -14 85 -17 145 -4 61 -8 139 -10 175 -8 129 -7 166 6
197 11 28 11 37 -3 60 -12 22 -16 64 -18 188 -2 88 -3 175 -2 193 0 17 -3 32
-8 32 -5 0 -5 14 0 31 10 35 10 248 0 254 -13 8 2 55 20 65 17 9 56 16 325 61
66 11 136 24 155 29 19 6 121 31 225 56 105 25 215 54 245 64 30 10 100 30
155 45 55 14 111 30 125 35 79 26 181 64 217 81 24 10 46 19 50 19 5 0 28 10
53 22 107 51 122 58 131 58 5 0 31 10 57 21 26 12 63 28 82 36 100 43 222 107
227 119 3 8 14 14 24 14 10 0 19 4 19 8 0 4 13 15 28 24 15 9 39 27 53 40 13
13 42 37 64 53 22 16 42 31 45 35 3 3 30 25 60 50 30 24 74 61 97 82 24 21 47
38 52 38 4 0 11 -14 15 -31z m3449 -110 c16 -179 -19 -1818 -43 -2063 -6 -54
-10 -107 -10 -119 0 -11 -3 -17 -7 -14 -14 15 -25 251 -28 612 -2 209 -6 448
-9 530 -5 144 -28 300 -47 319 -5 6 -4 14 1 21 6 7 6 25 -1 50 -8 29 -8 40 3
46 7 5 10 9 5 9 -4 0 0 17 8 37 35 83 24 303 -16 331 -10 7 -19 19 -19 26 0 8
-7 19 -15 26 -33 27 -12 86 38 103 9 4 17 13 17 22 0 8 4 15 8 15 5 0 15 19
22 43 16 51 57 110 73 104 7 -2 15 -42 20 -98z m-6825 59 c11 -14 11 -1342 0
-1353 -8 -9 -16 36 -23 140 -9 122 -17 1168 -9 1199 7 29 16 33 32 14z m5122
-148 c0 -21 -15 -27 -25 -10 -7 12 2 30 16 30 5 0 9 -9 9 -20z m110 -16 c0 -8
-5 -12 -10 -9 -6 4 -8 11 -5 16 9 14 15 11 15 -7z m1065 -113 c7 -24 -3 -51
-21 -51 -17 0 -37 37 -30 56 8 20 44 17 51 -5z m96 -136 c-4 -62 -6 -65 -40
-65 -25 0 -30 5 -35 36 -10 49 15 86 52 82 26 -3 27 -5 23 -53z m-267 -381
c19 -49 -3 -1144 -24 -1217 -10 -33 -15 -38 -38 -35 -46 5 -52 78 -49 581 1
242 5 441 9 443 5 3 8 49 8 103 0 102 8 125 45 134 36 8 43 7 49 -9z m-7004
-1764 l0 -320 120 0 120 0 0 -480 0 -480 80 0 80 0 0 480 0 480 120 0 120 0 0
320 0 320 280 0 280 0 0 -400 0 -400 -160 0 -160 0 0 -480 0 -480 -160 0 -160
0 0 -320 0 -320 -240 0 -240 0 0 320 0 320 -160 0 -160 0 0 480 0 480 -160 0
-160 0 0 400 0 400 280 0 280 0 0 -320z m3760 120 l0 -200 160 0 160 0 0 -200
0 -200 -280 0 -280 0 0 160 0 160 -520 0 -520 0 0 -720 0 -720 520 0 520 0 0
160 0 160 280 0 280 0 0 -240 0 -240 -160 0 -160 0 0 -160 0 -160 -720 0 -720
0 0 160 0 160 -200 0 -200 0 0 840 0 840 160 0 160 0 0 200 0 200 760 0 760 0
0 -200z m1760 -120 l0 -320 160 0 160 0 0 -320 0 -320 240 0 240 0 0 320 0
320 160 0 160 0 0 320 0 320 400 0 399 0 -6 -557 c-5 -499 -7 -559 -22 -572
-15 -13 -15 -13 2 -8 9 4 17 2 17 -3 0 -6 -9 -10 -20 -10 -11 0 -20 -6 -21
-12 0 -10 -2 -10 -6 0 -4 10 -8 10 -21 0 -10 -8 -13 -9 -9 -1 4 6 2 15 -4 19
-7 4 -9 3 -6 -3 9 -15 -13 -30 -40 -27 -12 0 -20 -3 -17 -7 11 -18 -7 -29 -28
-18 -15 8 -19 8 -14 0 7 -11 -12 -16 -43 -12 -7 2 -10 -2 -6 -8 3 -6 -1 -11
-10 -11 -10 0 -13 5 -9 12 4 7 3 8 -5 4 -6 -4 -9 -11 -6 -16 6 -9 -23 -22 -35
-15 -4 3 -11 -2 -14 -11 -5 -14 -9 -14 -23 -3 -15 12 -16 12 -10 -4 6 -15 4
-16 -14 -6 -15 8 -19 8 -15 0 4 -7 -1 -11 -13 -11 -12 0 -21 -6 -21 -12 0 -9
-4 -8 -10 2 -8 13 -10 13 -10 -2 0 -12 -5 -15 -17 -11 -11 4 -14 3 -9 -5 4 -7
2 -12 -3 -12 -8 0 -11 84 -11 260 l0 260 -80 0 -80 0 -1 -287 c-1 -159 -1
-291 -1 -294 1 -3 -5 -6 -13 -6 -8 0 -11 5 -8 10 4 6 1 7 -6 3 -7 -5 -10 -15
-7 -23 3 -8 2 -11 -3 -8 -5 3 -12 2 -14 -2 -6 -10 -60 -9 -77 2 -9 5 -11 4 -6
-3 4 -7 1 -12 -8 -12 -9 0 -16 -4 -16 -10 0 -5 -5 -10 -11 -10 -5 0 -7 6 -3
13 6 10 4 10 -7 0 -7 -8 -39 -13 -76 -13 l-63 0 0 -34 c0 -30 -3 -34 -22 -29
-19 4 -20 3 -8 -6 12 -9 11 -11 -7 -11 -13 0 -23 -6 -23 -12 0 -9 -4 -8 -10 2
-6 9 -10 11 -10 3 0 -7 -7 -10 -15 -7 -8 4 -17 -1 -21 -10 -3 -9 -10 -16 -16
-16 -5 0 -6 5 -3 10 3 6 1 10 -4 10 -6 0 -11 -5 -11 -11 0 -8 -5 -7 -16 1 -8
8 -14 9 -12 4 2 -5 -7 -21 -20 -34 -20 -22 -22 -22 -17 -5 7 20 6 20 -9 1 -9
-11 -16 -14 -16 -7 0 7 -5 9 -10 6 -6 -4 -7 -12 -4 -18 4 -7 4 -9 0 -5 -4 3
-23 0 -42 -8 -19 -8 -34 -11 -34 -8 0 4 -7 1 -15 -6 -12 -10 -15 -10 -15 1 0
7 -7 3 -16 -9 -8 -12 -20 -19 -26 -16 -6 4 -14 0 -19 -7 -7 -12 -9 -11 -9 1
-1 13 -2 13 -13 -1 -7 -9 -22 -21 -34 -28 -20 -10 -23 -9 -24 6 -1 17 -2 17
-6 1 -4 -15 -8 -16 -25 -7 -12 6 -18 7 -14 1 3 -5 -2 -16 -11 -23 -14 -12 -16
-12 -9 1 6 11 4 11 -6 -1 -7 -9 -21 -15 -31 -13 -11 1 -17 -2 -14 -10 3 -7 -6
-13 -22 -14 -14 -1 -28 -7 -30 -13 -1 -5 -9 -2 -17 8 -12 17 -13 17 -9 -3 3
-17 -1 -21 -22 -18 -13 1 -32 -5 -42 -14 -19 -18 -42 -27 -40 -15 1 5 1 88 0
186 l-1 177 -160 0 -160 0 0 320 0 320 -80 0 -80 0 -1 -592 c-1 -326 -1 -597
0 -601 1 -5 -3 -6 -8 -3 -5 4 -12 2 -16 -4 -4 -7 -12 -7 -25 0 -16 8 -18 7
-14 -4 4 -10 -4 -16 -25 -21 -18 -4 -28 -11 -25 -17 4 -5 -4 -5 -16 2 -18 9
-21 9 -15 0 6 -10 1 -12 -18 -8 -15 3 -24 1 -21 -3 3 -5 -3 -9 -14 -9 -10 0
-27 -9 -37 -20 -15 -16 -21 -18 -33 -7 -10 7 -13 8 -9 1 4 -7 0 -15 -9 -18
-10 -4 -13 -2 -9 7 4 6 -1 3 -9 -7 -11 -13 -16 -15 -16 -6 0 9 -6 8 -22 -6
-14 -13 -19 -14 -14 -4 4 8 -2 4 -13 -10 -13 -15 -19 -18 -15 -8 5 16 4 16
-24 3 -16 -9 -36 -22 -43 -31 -10 -12 -14 -12 -20 -2 -5 7 -9 498 -9 1091 l0
1077 400 0 400 0 0 -320z m-2325 -397 c22 -12 50 -32 62 -45 33 -36 73 -136
73 -183 l0 -43 58 -5 c31 -3 77 -10 102 -16 55 -12 237 -13 345 -1 44 5 158
12 253 16 l172 7 0 -101 c0 -93 -2 -102 -21 -113 -16 -8 -218 -10 -765 -7
-408 2 -746 6 -749 10 -4 3 -7 82 -8 175 -2 155 0 171 20 213 24 48 87 96 146
111 18 4 86 7 152 5 99 -2 127 -6 160 -23z m1280 -495 c7 -7 7 -406 0 -418 -3
-4 -5 -176 -5 -381 0 -388 4 -444 44 -504 9 -13 16 -35 16 -49 0 -19 6 -25 33
-29 17 -3 59 -12 92 -21 88 -23 549 -18 615 7 25 9 62 17 83 17 35 0 37 2 37
33 0 29 40 143 72 205 27 52 43 54 371 42 313 -11 513 -25 582 -40 73 -17 93
-13 110 21 35 67 24 12 -35 -173 -71 -221 -87 -257 -147 -349 -23 -37 -43 -70
-43 -75 0 -4 -6 -15 -13 -23 -24 -28 -49 -101 -34 -101 8 -1 7 -4 -3 -13 -34
-28 -63 -68 -65 -89 -3 -25 -80 -149 -114 -184 -12 -12 -21 -26 -21 -33 0 -6
-20 -37 -45 -69 -25 -31 -45 -63 -45 -69 0 -7 -4 -13 -10 -13 -5 0 -16 -16
-24 -35 -8 -19 -20 -35 -25 -35 -6 0 -18 -15 -27 -32 -9 -18 -29 -47 -43 -64
-47 -56 -56 -69 -68 -96 -7 -16 -19 -28 -28 -28 -8 0 -15 -6 -15 -12 0 -12
-24 -38 -161 -184 -22 -22 -39 -44 -39 -47 0 -4 -18 -24 -40 -44 -22 -21 -40
-43 -40 -49 0 -6 -10 -15 -22 -21 -13 -6 -43 -34 -68 -62 -25 -28 -111 -119
-192 -202 -82 -82 -148 -151 -148 -152 0 -6 -132 -137 -138 -137 -4 0 -41 -30
-83 -67 -96 -86 -128 -113 -134 -113 -2 0 -15 -10 -29 -22 -25 -23 -55 -48
-113 -94 -18 -14 -33 -23 -33 -19 0 4 -9 -4 -21 -19 -11 -14 -27 -26 -35 -26
-8 0 -14 -4 -14 -9 0 -5 -32 -42 -71 -83 -77 -79 -75 -79 -111 -15 -8 16 -7
18 11 12 l21 -6 0 1428 c-1 1371 2 1591 22 1561 6 -10 13 -7 27 12 36 45 49
178 31 297 -10 65 -11 98 -3 137 12 58 2 184 -18 229 -7 15 -20 27 -29 27 -20
0 -30 69 -30 207 l0 85 104 -4 c57 -1 107 -6 111 -10z m-3125 -49 c7 -11 14
-18 17 -15 7 6 33 -12 33 -23 0 -3 -17 -6 -38 -5 -70 1 -72 2 -72 34 0 25 4
30 25 30 14 0 29 -8 35 -21z m-113 -9 c21 0 11 -22 -16 -31 -14 -6 -20 -5 -16
1 3 6 1 10 -4 10 -15 0 -14 27 2 33 6 2 14 0 15 -4 2 -5 10 -9 19 -9z m47 -67
c4 -10 1 -22 -8 -28 -8 -6 -16 -24 -18 -40 -2 -24 -8 -31 -30 -33 -35 -4 -45
27 -22 65 33 53 66 68 78 36z m-95 -16 c8 -11 3 -17 -24 -30 -33 -16 -35 -16
-35 1 0 36 37 54 59 29z m271 -884 c0 -10 7 -27 15 -37 17 -23 19 -36 5 -36
-5 0 -12 11 -16 25 -4 18 -13 25 -29 25 -18 0 -22 4 -18 20 7 25 43 27 43 3z
m90 -20 c0 -21 -19 -24 -29 -4 -17 32 -14 43 9 29 11 -7 20 -18 20 -25z m-140
-37 c5 -13 18 -27 29 -31 27 -8 27 -29 -1 -55 -28 -26 -34 -25 -42 5 -4 14
-11 25 -16 25 -11 0 -14 63 -3 73 12 13 24 7 33 -17z m540 -463 c0 -9 10 -30
23 -47 30 -39 39 -64 27 -71 -5 -3 -23 22 -40 56 -32 68 -35 79 -20 79 6 0 10
-7 10 -17z m-81 -109 c1 -37 -11 -44 -74 -44 -46 0 -69 17 -63 47 2 10 12 19
23 21 34 5 95 34 96 46 2 20 17 -39 18 -70z m206 -63 c5 -16 4 -21 -4 -17 -6
4 -11 16 -11 27 0 10 -5 19 -11 19 -5 0 -7 5 -3 11 8 13 17 1 29 -40z m4639
13 c22 -22 20 -36 -10 -58 -26 -18 -104 -35 -104 -22 0 13 22 51 43 74 24 26
49 28 71 6z m-4571 -128 c17 -30 33 -46 43 -44 10 2 23 -9 33 -27 122 -223
351 -570 466 -708 214 -259 314 -368 534 -585 141 -139 351 -337 466 -439 116
-103 242 -219 281 -258 39 -39 104 -98 145 -131 41 -32 82 -69 93 -82 13 -17
21 -20 31 -12 9 8 16 3 25 -20 7 -16 17 -30 22 -30 5 0 30 19 56 43 26 24 81
70 122 102 41 33 95 78 120 100 25 23 83 73 130 111 190 154 391 342 685 642
171 175 323 333 338 352 16 19 54 61 85 93 41 43 53 61 43 67 -11 6 -9 14 6
36 35 50 147 228 175 279 23 41 55 95 76 127 9 15 39 63 65 107 48 79 67 103
67 81 0 -17 -55 -118 -114 -210 -30 -47 -70 -110 -87 -140 -18 -30 -40 -64
-49 -75 -10 -11 -32 -47 -50 -80 -18 -33 -42 -70 -53 -82 -11 -13 -17 -26 -13
-30 12 -12 61 50 246 310 30 43 72 101 92 130 21 29 45 67 54 85 9 18 25 37
35 43 11 5 19 16 19 24 0 8 9 24 20 35 11 11 21 30 24 43 4 25 62 134 75 141
4 3 5 -9 3 -25 -2 -17 -12 -35 -22 -41 -10 -7 -16 -17 -13 -24 3 -7 -2 -26
-10 -41 -8 -15 -27 -53 -42 -83 -15 -30 -31 -62 -36 -70 -5 -8 -16 -28 -23
-45 -31 -67 -100 -181 -149 -246 -29 -37 -74 -98 -101 -134 -231 -309 -563
-656 -899 -939 -32 -27 -89 -76 -126 -110 -37 -34 -85 -76 -107 -95 -21 -18
-70 -62 -109 -96 -38 -34 -144 -124 -235 -199 -91 -75 -184 -153 -208 -174
-24 -20 -49 -42 -57 -47 -13 -10 -39 -259 -52 -493 -3 -56 -10 -105 -16 -109
-16 -10 -27 20 -27 82 -1 33 -5 80 -10 105 -5 26 -4 123 1 228 8 161 7 186 -7
207 -17 26 -200 184 -337 292 -45 35 -89 69 -98 77 -8 7 -58 46 -110 87 -52
40 -119 94 -150 119 -31 25 -89 70 -129 100 -97 74 -151 119 -240 204 -42 39
-98 91 -125 116 -53 47 -101 108 -92 116 5 5 48 -32 163 -140 68 -63 140 -113
150 -103 7 7 -376 386 -412 408 -23 14 -31 25 -27 36 5 12 2 15 -9 11 -9 -4
-22 7 -38 32 -13 21 -33 41 -43 44 -16 4 -19 11 -14 38 6 29 5 31 -7 16 -16
-22 -26 -13 -26 22 0 25 -29 77 -30 53 0 -6 5 -15 10 -18 14 -9 12 -37 -2 -33
-13 5 -27 45 -32 95 -3 20 -25 61 -57 105 -30 39 -67 93 -84 119 -16 26 -70
106 -120 178 -167 243 -185 270 -228 348 -23 43 -41 87 -39 98 4 19 5 19 21
-2 9 -11 28 -42 44 -67z m138 -361 c5 -11 34 -56 65 -100 31 -44 58 -87 59
-95 2 -8 4 -17 5 -20 3 -8 7 -24 8 -37 1 -7 9 -13 17 -13 10 0 15 -10 15 -27
l0 -28 -25 30 c-29 34 -124 177 -143 215 -7 14 -19 36 -27 50 -7 14 -17 39
-21 55 l-7 30 23 -20 c12 -11 26 -29 31 -40z m-111 -40 c8 -27 18 -55 22 -60
4 -6 3 -17 -1 -24 -12 -19 -51 4 -51 30 0 11 -9 37 -20 58 -21 42 -17 54 14
49 15 -2 25 -17 36 -53z m-142 -74 c10 -66 -33 -145 -66 -125 -28 18 -27 61 2
95 14 17 26 37 26 46 0 24 35 10 38 -16z m92 -32 c0 -20 -15 -26 -25 -9 -9 15
3 43 15 35 5 -3 10 -15 10 -26z m-10 -50 c15 -28 15 -67 1 -112 -9 -28 -18
-37 -34 -37 -27 0 -86 35 -94 56 -7 20 24 43 60 44 24 0 27 4 27 35 0 40 22
48 40 14z m3570 -393 c0 -2 -7 -9 -15 -16 -13 -11 -14 -10 -9 4 5 14 24 23 24
12z m-55 -68 c-53 -64 -197 -209 -203 -204 -4 5 22 36 123 141 11 12 35 38 53
58 40 46 64 50 27 5z m-2891 -50 c9 -12 25 -52 37 -88 11 -36 36 -96 55 -133
19 -38 31 -73 28 -78 -3 -5 -1 -9 4 -9 13 0 22 -39 11 -46 -5 -3 -9 -18 -9
-35 0 -40 -32 -69 -76 -69 -34 0 -35 1 -32 32 2 28 8 34 32 38 22 4 32 12 37
34 11 40 1 51 -20 24 l-18 -21 -5 26 c-3 15 -1 30 3 33 14 8 10 31 -6 38 -8 3
-21 -1 -29 -9 -8 -8 -23 -15 -33 -15 -16 1 -16 2 2 12 38 22 43 31 26 49 -9 8
-24 19 -35 22 -11 5 -16 13 -12 22 8 21 -3 45 -20 45 -8 0 -14 8 -14 18 0 27
11 34 25 15 7 -9 17 -13 24 -9 8 5 2 21 -20 51 -27 37 -30 47 -19 60 18 22 46
19 64 -7z m176 -158 c0 -5 -4 -10 -10 -10 -5 0 -10 5 -10 10 0 6 5 10 10 10 6
0 10 -4 10 -10z m2629 -216 c13 9 18 -11 20 -91 2 -86 -10 -99 -72 -77 -22 8
-51 14 -66 14 -20 0 -27 5 -28 21 -2 27 34 77 69 95 15 8 30 23 33 34 5 17 10
19 20 10 8 -7 18 -9 24 -6z m-2705 -176 c16 -26 -5 -44 -33 -29 -29 16 -29 54
0 49 12 -2 27 -11 33 -20z m266 -23 c0 -2 -13 -3 -30 -3 -24 1 -28 4 -19 14 8
10 16 11 30 3 10 -5 19 -11 19 -14z m2196 -57 c47 -39 54 -50 54 -85 0 -50 7
-58 63 -82 26 -11 47 -25 47 -31 0 -5 7 -10 15 -10 36 0 -57 -127 -142 -194
-24 -18 -87 -74 -142 -125 -149 -138 -180 -161 -221 -161 -33 0 -35 2 -37 36
-1 20 -7 42 -12 47 -6 6 -11 19 -11 29 0 10 -6 18 -12 19 -10 0 -10 2 0 6 16
6 15 33 -1 58 -18 28 -22 116 -5 113 8 -2 13 8 13 27 0 17 4 36 8 43 5 6 5 17
1 24 -4 7 -3 8 5 4 8 -5 16 3 24 23 6 17 15 31 19 31 4 0 8 5 8 12 0 19 31 48
52 48 10 0 18 7 18 15 0 9 8 18 18 22 9 3 29 19 43 35 14 15 31 28 37 28 7 0
12 4 12 9 0 7 26 20 52 25 4 0 16 8 27 18 14 12 22 13 30 5 8 -8 11 -6 11 6 0
20 6 21 26 5z m-2241 -25 c6 -12 16 -27 23 -35 14 -17 6 -28 -19 -28 -10 0
-19 -10 -23 -25 -6 -22 -9 -24 -26 -15 -24 13 -26 36 -4 44 10 4 13 13 9 26
-8 26 3 62 18 57 7 -2 17 -13 22 -24z m2525 -31 c0 -11 -39 -46 -67 -61 -25
-13 -73 -15 -73 -3 0 22 40 44 66 38 20 -5 30 -2 41 14 14 20 33 27 33 12z
m-2256 -375 c14 -8 23 -17 19 -20 -3 -4 1 -7 10 -7 10 0 17 -6 17 -13 0 -7 16
-30 35 -51 19 -21 35 -42 35 -47 0 -19 2 -24 13 -39 7 -8 -7 1 -30 20 -24 19
-50 49 -58 67 -8 17 -24 34 -34 38 -13 4 -17 12 -14 25 4 14 -2 23 -18 29 -13
5 -19 10 -13 10 7 1 23 -5 38 -12z m594 -153 c22 -15 31 -64 12 -64 -14 0 -59
51 -60 68 0 17 21 15 48 -4z m-257 -46 c-8 -38 21 -88 50 -88 19 0 42 -24 32
-33 -31 -32 -123 47 -123 106 0 38 6 47 30 47 14 0 16 -6 11 -32z m165 -62 c7
-31 -4 -55 -17 -35 -12 19 -11 59 1 59 5 0 12 -11 16 -24z m74 -45 c0 -6 -4
-13 -10 -16 -5 -3 -10 1 -10 9 0 9 5 16 10 16 6 0 10 -4 10 -9z m669 -75 c1
-5 -6 -3 -14 4 -8 7 -15 27 -14 44 l1 31 13 -35 c7 -19 14 -39 14 -44z"/>
<path d="M4390 9012 c0 -11 9 -27 19 -36 21 -19 38 -73 27 -84 -4 -3 -13 4
-22 16 -8 12 -22 22 -30 22 -8 0 -19 12 -24 26 -11 28 -33 28 -38 0 -2 -11 4
-19 17 -23 24 -6 28 -41 6 -49 -8 -4 -21 -1 -28 4 -10 9 -12 4 -9 -23 2 -19 1
-42 -2 -51 -6 -15 -9 -15 -29 4 -19 17 -25 19 -39 8 -10 -7 -18 -23 -18 -34 0
-29 95 -123 147 -146 40 -18 45 -18 86 -2 53 20 122 77 143 117 8 16 15 44 16
63 2 62 -19 92 -106 151 -85 58 -116 68 -116 37z m30 -162 c0 -5 -5 -10 -11
-10 -5 0 -7 5 -4 10 3 6 8 10 11 10 2 0 4 -4 4 -10z"/>
<path d="M4240 8926 c0 -9 7 -16 16 -16 17 0 14 22 -4 28 -7 2 -12 -3 -12 -12z"/>
<path d="M3298 8570 c-10 -11 -21 -32 -24 -46 l-7 -27 37 28 c35 26 44 54 21
62 -6 2 -18 -6 -27 -17z"/>
<path d="M3216 8559 c-14 -21 -14 -24 1 -41 24 -27 43 -22 43 11 0 42 -24 58
-44 30z"/>
<path d="M3360 8516 c0 -53 -21 -77 -45 -52 -9 9 -18 16 -20 16 -12 0 -35 -35
-35 -54 0 -13 -8 -30 -18 -39 -23 -21 -32 -21 -32 -2 0 12 -4 13 -25 3 -18 -8
-28 -8 -39 1 -21 17 -26 1 -19 -57 5 -49 8 -53 52 -78 25 -15 61 -42 78 -61
37 -38 49 -39 175 -2 86 25 110 58 109 152 0 34 -3 72 -5 84 -7 34 -46 80 -77
93 -16 7 -34 18 -40 26 -6 8 -22 14 -35 14 -22 0 -24 -4 -24 -44z m46 -54
c-10 -10 -29 15 -21 28 6 9 10 8 17 -4 6 -10 7 -20 4 -24z"/>
<path d="M2087 8316 c-24 -24 -21 -44 6 -48 18 -2 22 -9 20 -37 0 -18 -8 -41
-17 -49 -15 -15 -16 -14 -16 9 0 24 -16 49 -32 49 -4 0 -8 -7 -8 -15 0 -9 -12
-27 -26 -42 -23 -23 -24 -27 -10 -42 15 -16 15 -19 -1 -34 -10 -8 -34 -17 -53
-19 -30 -2 -35 -7 -38 -30 -4 -35 23 -52 115 -71 39 -8 76 -17 81 -21 25 -15
112 55 131 107 14 35 14 98 1 132 -11 30 -58 74 -80 75 -8 0 -24 12 -35 26
-20 25 -22 25 -38 10z m-17 -166 c0 -5 -2 -10 -4 -10 -3 0 -8 5 -11 10 -3 6
-1 10 4 10 6 0 11 -4 11 -10z"/>
<path d="M2020 7248 c1 -15 13 -30 33 -43 41 -26 33 -41 -19 -37 -53 4 -71
-15 -57 -62 15 -48 0 -68 -28 -38 -13 14 -29 22 -40 19 -10 -3 -20 0 -23 7 -3
6 -2 -9 1 -34 7 -49 52 -115 86 -126 69 -22 193 10 217 56 21 39 23 105 4 141
-32 63 -123 139 -165 139 -5 0 -9 -10 -9 -22z"/>
<path d="M1912 7233 c-19 -27 -45 -103 -38 -110 10 -10 36 12 45 38 5 16 14
29 20 29 19 0 39 30 34 50 -8 28 -38 25 -61 -7z"/>
<path d="M2260 5144 c0 -8 5 -12 10 -9 6 4 8 11 5 16 -9 14 -15 11 -15 -7z"/>
<path d="M6956 4678 c3 -5 10 -6 15 -3 13 9 11 12 -6 12 -8 0 -12 -4 -9 -9z"/>
<path d="M4869 9913 c-13 -16 -12 -17 4 -4 9 7 17 15 17 17 0 8 -8 3 -21 -13z"/>
<path d="M2140 8740 c-85 -5 -77 -6 74 -8 93 -1 167 0 165 3 -9 8 -143 11
-239 5z"/>
<path d="M1570 7257 c0 -79 4 -128 11 -133 8 -4 9 31 4 122 -4 71 -9 131 -11
133 -2 2 -4 -52 -4 -122z"/>
<path d="M8850 5120 l0 -1390 470 0 470 0 0 1390 0 1390 -470 0 -470 0 0
-1390z m750 886 c0 -307 -3 -352 -21 -340 -5 3 -9 0 -9 -5 0 -6 -5 -11 -11
-11 -5 0 -8 3 -6 8 3 4 -5 7 -17 7 -18 0 -22 -5 -19 -20 4 -16 3 -17 -6 -5 -9
13 -11 12 -16 -2 -7 -17 -21 -18 -42 -5 -9 6 -11 3 -6 -10 6 -16 5 -16 -10 -4
-15 12 -17 12 -11 -3 4 -11 1 -16 -11 -16 -10 0 -13 -4 -9 -12 5 -9 2 -9 -9 1
-12 9 -17 10 -17 2 0 -7 -4 -10 -9 -7 -5 3 -14 0 -20 -8 -6 -7 -23 -12 -37
-10 -17 2 -24 -2 -21 -10 4 -10 -4 -12 -30 -9 -20 2 -32 0 -29 -6 3 -5 -1 -12
-10 -15 -10 -4 -13 -2 -8 7 6 9 5 9 -8 0 -8 -7 -18 -10 -21 -6 -4 3 -7 0 -7
-8 0 -11 -2 -11 -10 1 -8 13 -10 12 -10 -3 0 -10 -4 -15 -10 -12 -5 3 -10 -2
-10 -11 0 -16 -1 -16 -16 2 -8 10 -12 13 -8 5 5 -11 3 -13 -9 -8 -9 3 -16 3
-16 -1 3 -19 -2 -23 -16 -12 -13 11 -14 10 -10 -2 4 -9 0 -15 -10 -15 -13 0
-15 49 -15 429 l0 428 280 0 280 0 0 -314z"/>
<path d="M4106 957 c3 -10 9 -15 12 -12 3 3 0 11 -7 18 -10 9 -11 8 -5 -6z"/>
<path d="M4140 916 c0 -2 7 -7 16 -10 8 -3 12 -2 9 4 -6 10 -25 14 -25 6z"/>
<path d="M4216 845 c14 -14 28 -25 31 -25 4 0 -4 11 -17 25 -13 14 -27 25 -31
25 -5 0 3 -11 17 -25z"/>
<path d="M4270 830 c0 -5 5 -10 11 -10 5 0 7 5 4 10 -3 6 -8 10 -11 10 -2 0
-4 -4 -4 -10z"/>
<path d="M4292 773 c14 -17 35 -16 42 2 4 12 -1 15 -24 13 -22 -2 -27 -5 -18
-15z"/>
<path d="M5821 641 c-10 -6 -10 -10 -1 -16 13 -8 24 -1 19 14 -3 6 -10 7 -18
2z"/>
</g>
</svg>
