<?xml version="1.0" encoding="UTF-8" standalone="no"?>
<svg
   id="Layer_1"
   viewBox="0 0 665.18103 665.18104"
   version="1.1"
   width="16"
   height="16"
   fill="currentColor"
   xmlns="http://www.w3.org/2000/svg"
   xmlns:svg="http://www.w3.org/2000/svg">
  <defs
     id="defs2473" />
  <path
     id="path907"
     d="M 39.625042 114.40919 C 13.995068 114.40919 0.32479543 138.03983 0.32479543 155.08982 L 0.32479543 160.28654 C 0.31479544 162.30654 -0.90602033 363.07108 1.6239771 470.79097 C 1.6239771 471.00097 1.6039772 471.23056 1.6239771 471.44056 C 4.1539746 512.38052 27.293367 531.89919 46.283348 541.10918 C 65.893329 550.61917 85.098391 550.76185 85.908391 550.77185 L 85.989589 550.77185 C 94.509581 550.77185 295.91654 550.72266 394.62644 549.47266 C 400.35644 549.47266 405.75739 549.50749 412.97739 547.76749 L 413.22098 547.68629 C 443.25095 540.0063 464.6297 522.4554 476.79969 495.47542 C 482.54968 482.72544 486.07674 468.34802 487.43674 451.62804 C 514.98671 450.92804 540.88448 445.52946 564.49445 435.46947 C 589.36443 424.86948 610.44879 409.67289 627.09877 390.3229 C 659.79874 352.32294 672.00708 302.00085 661.52709 248.6309 L 661.52709 248.5497 L 661.44589 248.3873 C 650.1259 191.64736 619.0128 160.88234 594.86283 145.10236 C 566.57285 125.30238 531.24419 114.40919 495.39423 114.40919 L 39.625042 114.40919 z M 489.54791 224.75844 L 503.27051 224.75844 C 518.7205 224.75844 532.41118 231.1322 541.92117 242.62218 L 542.24597 242.86578 C 550.18596 251.99577 554.0198 263.5785 554.0198 278.26848 C 554.0198 311.75845 541.76435 330.25842 513.01438 339.89841 C 505.52438 340.67841 497.6279 341.0976 489.54791 341.1976 L 489.54791 224.75844 z M 300.76057 226.86961 C 311.69274 225.50648 323.74068 226.59394 336.32566 231.90394 C 385.38562 253.04391 384.02017 310.03559 354.9202 344.44555 C 321.79024 382.78551 248.8745 449.02968 248.8745 449.02968 C 248.8745 449.02968 246.227 451.67968 240.91701 449.02968 L 240.91701 449.11088 C 239.64701 447.83088 238.23745 446.4317 238.23745 447.8117 C 226.33746 437.19171 149.47292 368.33553 132.27294 344.44555 C 113.69296 317.99558 104.5046 272.8885 129.67457 246.43853 C 154.84455 219.98856 209.10579 217.35562 244.89575 257.07558 C 244.89575 257.07558 267.96404 230.95898 300.76057 226.86961 z " />
</svg>
