<?xml version="1.0" standalone="no"?>
<!DOCTYPE svg PUBLIC "-//W3C//DTD SVG 20010904//EN"
 "http://www.w3.org/TR/2001/REC-SVG-20010904/DTD/svg10.dtd">
<svg version="1.0" xmlns="http://www.w3.org/2000/svg"
 width="256.000000pt" height="256.000000pt" viewBox="0 0 256.000000 256.000000"
 preserveAspectRatio="xMidYMid meet">
<metadata>
Created by potrace 1.11, written by Peter Selinger 2001-2013
</metadata>
<g transform="translate(0.000000,256.000000) scale(0.100000,-0.100000)"
fill="#000000" stroke="none">
<path d="M430 2391 c-13 -19 -15 -19 -27 -3 -12 15 -12 15 -6 -3 3 -11 11 -23
16 -26 5 -3 2 -9 -7 -12 -9 -4 -15 -3 -15 1 3 20 -2 32 -13 30 -14 -3 -32 -37
-29 -53 1 -5 -3 -4 -11 3 -11 11 -10 14 2 22 13 8 13 11 1 22 -11 11 -13 11
-6 -1 6 -11 4 -13 -8 -8 -9 3 -19 1 -23 -5 -5 -7 -2 -8 6 -3 8 5 11 3 8 -6 -3
-8 -9 -13 -14 -12 -5 1 -10 -8 -10 -20 -3 -30 -8 -49 -18 -66 -6 -10 -5 -12 2
-7 7 4 12 2 12 -4 0 -6 5 -8 12 -4 6 4 8 3 4 -4 -3 -6 -15 -9 -26 -7 -12 2
-18 0 -15 -6 4 -5 10 -7 15 -4 4 3 10 -2 14 -10 3 -8 0 -17 -6 -21 -7 -5 -8
-2 -3 6 5 9 4 11 -4 6 -6 -4 -9 -12 -5 -17 3 -5 10 -7 15 -4 5 4 9 1 9 -5 0
-6 -7 -13 -15 -16 -8 -4 -15 -11 -15 -16 0 -6 6 -5 15 2 18 15 20 -1 3 -19
-11 -11 -9 -12 8 -3 21 11 34 7 34 -11 0 -5 -6 -7 -13 -4 -7 3 -19 -4 -25 -14
-10 -15 -10 -19 0 -17 8 2 13 -6 12 -19 0 -12 3 -20 8 -17 14 9 9 -9 -9 -29
-10 -11 -13 -17 -7 -14 14 8 37 -16 27 -27 -4 -4 0 -4 10 0 10 3 17 1 17 -6 0
-6 5 -8 12 -4 6 4 8 3 5 -3 -4 -6 -19 -9 -34 -7 -16 2 -23 2 -16 -2 6 -3 9
-17 7 -32 -3 -18 -2 -23 5 -13 6 9 10 10 16 2 5 -9 10 -9 21 0 10 8 14 8 14 0
0 -10 -13 -15 -32 -12 -17 2 -7 -14 24 -39 22 -18 28 -29 20 -34 -7 -4 -12 -4
-11 1 4 20 -2 27 -12 13 -9 -13 -10 -13 -6 2 6 16 -20 35 -31 23 -3 -3 0 -5 6
-5 7 0 12 -7 12 -16 0 -8 7 -22 15 -30 10 -10 13 -25 9 -42 -10 -43 -10 -47 6
-44 10 2 6 -6 -10 -23 l-25 -27 38 22 c20 12 37 17 37 11 0 -6 -7 -11 -15 -11
-21 0 -19 -17 3 -22 19 -5 24 -40 7 -55 -4 -5 -4 -2 0 6 6 11 4 13 -8 8 -11
-4 -25 2 -38 16 -12 13 -18 16 -14 6 5 -13 -3 -15 -57 -13 -35 2 -69 0 -75 -4
-17 -11 -30 -74 -23 -115 4 -21 4 -40 0 -42 -12 -7 -3 -57 12 -67 9 -7 6 -8
-11 -4 l-23 5 21 -20 c11 -11 21 -24 21 -29 0 -6 11 -10 25 -10 24 0 25 -2 25
-68 0 -40 5 -73 12 -80 16 -16 48 -15 48 1 0 9 2 9 8 -1 5 -7 9 -40 10 -73 0
-34 3 -64 6 -66 9 -9 114 -31 120 -26 3 3 24 7 47 9 51 5 60 10 53 32 -5 14
-4 14 4 2 8 -10 7 -19 -1 -29 -10 -12 -9 -14 8 -8 18 6 18 6 3 -6 -20 -16 -20
-60 -1 -53 18 7 44 -4 37 -15 -3 -6 2 -21 10 -34 9 -14 12 -25 7 -25 -5 0 -13
9 -16 20 -4 11 -11 18 -16 15 -5 -4 -5 -13 0 -23 4 -9 7 -27 6 -40 -1 -13 5
-29 14 -35 9 -7 18 -21 19 -32 5 -24 10 -30 18 -22 4 4 1 13 -6 22 -8 10 -9
15 -1 15 6 0 11 -5 11 -11 0 -5 4 -7 10 -4 5 3 3 -10 -5 -30 -14 -33 -13 -40
9 -36 5 1 6 -7 3 -19 -3 -13 0 -20 10 -20 8 0 11 5 8 10 -3 6 -1 10 6 10 7 0
2 11 -12 26 -16 17 -18 23 -7 19 14 -6 29 -28 29 -45 1 -3 5 -10 10 -16 7 -8
5 -11 -3 -10 -7 0 -15 -3 -16 -9 -2 -5 -8 -19 -14 -30 -9 -19 -9 -19 6 -1 9
10 13 23 9 29 -3 6 -1 7 6 3 6 -4 9 -16 6 -27 -4 -11 -2 -19 5 -19 6 0 8 4 5
10 -3 5 -1 10 5 10 6 0 8 5 4 12 -4 7 -3 8 4 4 9 -5 8 -15 -3 -36 -19 -37 -19
-46 0 -30 8 7 15 19 15 28 0 8 3 13 6 9 4 -3 3 -14 -1 -24 -5 -10 -9 -27 -11
-38 -3 -14 1 -12 12 8 9 16 18 26 21 23 3 -3 0 -12 -7 -21 -7 -9 -10 -18 -6
-22 3 -3 -2 -16 -11 -27 -17 -20 -17 -20 0 -7 15 12 21 9 19 -10 -1 -3 6 -6
14 -6 7 0 14 4 14 8 0 4 8 6 18 5 11 -2 16 -10 14 -25 -2 -12 3 -24 12 -27 12
-5 13 -9 3 -19 -7 -7 -14 -11 -17 -10 -3 2 -6 -4 -6 -14 0 -13 9 -17 44 -16
23 1 45 -2 48 -7 3 -5 2 -8 -3 -7 -20 3 -30 -2 -30 -16 0 -8 7 -15 14 -15 8 0
11 -5 7 -12 -4 -6 -3 -8 4 -4 6 3 12 -2 14 -11 2 -13 6 -14 11 -6 5 7 -1 21
-12 32 -19 19 -19 20 -1 18 10 -1 18 -4 18 -7 -2 -19 4 -30 16 -30 8 0 18 -9
21 -20 6 -18 12 -22 31 -19 4 0 10 -5 15 -13 5 -7 13 -13 19 -13 5 0 10 -3 10
-7 0 -5 0 -10 0 -13 0 -8 -72 44 -85 62 -12 16 -14 16 -31 -2 -17 -17 -17 -18
-1 -12 18 7 61 -26 49 -38 -4 -3 1 -3 11 1 13 5 16 2 11 -12 -5 -16 -4 -16 5
-4 10 14 12 13 15 -9 0 -5 5 -13 10 -18 5 -5 6 -3 2 4 -8 15 3 17 24 3 9 -6
20 -5 29 3 12 10 13 9 6 -2 -6 -11 -4 -13 9 -8 9 4 15 3 13 -1 -10 -15 12 -52
28 -46 9 4 15 1 15 -7 1 -9 4 -8 11 4 5 9 7 23 3 30 -5 8 -2 7 9 -2 13 -11 17
-11 17 -1 0 8 3 10 7 6 5 -4 1 -13 -7 -19 -18 -15 -26 -42 -8 -31 6 4 36 6 66
5 33 -2 52 1 48 7 -7 12 14 29 37 29 21 0 21 -4 0 -25 -16 -16 -16 -16 -10 1
3 9 2 17 -3 17 -16 0 -20 -18 -6 -29 10 -8 16 -9 21 -1 3 6 11 8 16 4 5 -3 6
-10 3 -16 -4 -6 -3 -8 3 -5 5 3 9 20 8 36 -1 17 2 28 7 25 5 -3 17 0 26 8 16
12 16 11 2 -7 -8 -11 -19 -23 -24 -26 -4 -4 -3 -10 3 -13 6 -4 11 -2 11 3 0 6
10 11 23 11 18 0 19 2 7 10 -13 8 -13 10 2 10 9 0 22 -8 28 -17 11 -17 11 -17
6 1 -5 13 -2 17 8 13 10 -4 13 -1 9 9 -4 12 -8 12 -22 2 -14 -12 -14 -11 -3 4
11 13 19 15 38 7 17 -6 23 -6 19 1 -6 10 6 14 35 11 11 -1 11 1 -2 9 -13 8
-24 8 -37 0 -11 -5 -22 -6 -25 -1 -8 13 4 20 22 14 11 -5 13 -3 7 6 -6 10 -3
11 12 2 15 -7 25 -6 42 5 17 12 25 13 36 4 9 -8 15 -8 20 0 4 6 1 9 -5 8 -18
-4 -21 30 -3 36 8 3 19 4 24 1 5 -4 6 1 3 9 -8 20 -9 20 -39 0 -14 -9 -25 -14
-25 -10 0 3 11 13 25 22 18 12 29 13 38 6 9 -8 17 -8 27 0 12 8 12 9 -2 4 -10
-3 -18 -2 -19 2 0 4 -2 15 -4 25 -2 9 1 15 6 11 5 -3 7 -10 4 -15 -4 -5 1 -9
9 -9 19 0 20 11 4 30 -7 8 -3 6 10 -4 22 -19 32 -10 12 10 -6 6 -8 18 -4 28 5
13 9 14 21 4 12 -10 18 -9 29 7 8 10 14 15 14 10 0 -15 24 14 26 32 2 10 -5
26 -14 37 -9 11 -12 16 -6 13 7 -4 14 2 17 14 4 15 11 19 24 15 25 -8 51 9 28
17 -11 5 -14 3 -9 -6 5 -8 2 -7 -9 2 -18 15 -23 26 -7 16 9 -5 14 6 12 25 0 3
7 6 17 6 10 0 18 -6 18 -12 0 -7 -6 -10 -14 -7 -7 3 -13 1 -13 -4 0 -4 14 -9
31 -9 20 -1 27 1 18 6 -17 11 -20 40 -4 40 9 0 12 12 11 36 -1 21 5 40 14 47
13 11 13 10 1 -5 -7 -10 -9 -18 -3 -18 21 0 21 30 -1 45 -12 8 -17 15 -11 15
5 0 15 -5 21 -11 7 -7 15 -5 27 6 18 18 21 41 7 50 -10 6 -11 45 -1 45 3 0 12
-5 20 -10 13 -8 12 -10 -2 -10 -10 0 -18 -4 -18 -9 0 -6 9 -9 19 -8 11 0 17 5
15 9 -3 4 0 8 7 8 7 0 4 7 -7 16 -10 8 -13 13 -6 9 7 -4 12 0 12 10 0 9 4 14
8 11 14 -9 8 39 -7 50 -11 9 -7 10 16 7 17 -3 33 -1 37 5 3 5 -6 8 -20 6 -14
-1 -23 0 -20 3 3 3 1 15 -5 26 -6 10 -7 17 -2 14 12 -8 55 22 48 33 -7 11 20
31 36 27 8 -2 11 -2 7 0 -5 3 -8 9 -8 14 0 6 6 7 13 3 9 -6 9 -5 0 8 -7 8 -10
18 -6 22 4 4 -1 4 -12 1 -20 -6 -20 -6 0 7 19 12 36 66 17 55 -5 -4 -9 0 -9 7
0 11 4 12 18 3 10 -6 16 -15 13 -19 -3 -4 -1 -16 4 -25 10 -20 5 -46 -8 -38
-5 3 -2 -9 7 -26 11 -23 20 -29 35 -26 15 4 18 2 14 -10 -5 -12 -3 -13 6 -6
13 9 24 9 78 2 36 -4 68 9 75 31 6 19 7 269 2 320 -2 14 4 34 12 44 9 11 10
16 3 12 -9 -6 -12 10 -10 66 1 40 -2 83 -6 95 -7 22 -42 38 -79 35 -11 0 -15
3 -10 11 4 7 8 15 9 20 1 4 2 8 4 10 6 8 7 36 0 32 -4 -2 -7 7 -7 22 0 25 0
26 13 8 8 -10 14 -14 14 -8 0 15 -28 43 -43 43 -7 0 -6 4 3 10 21 13 39 12 20
-1 -13 -9 -13 -10 2 -6 9 3 19 3 21 -1 5 -9 -1 13 -10 35 -5 12 -3 14 7 8 8
-5 11 -4 6 3 -3 5 0 13 6 15 10 4 10 6 1 6 -7 1 -13 6 -13 12 0 5 4 8 9 4 5
-3 13 0 17 6 4 8 3 9 -4 5 -7 -4 -12 -2 -12 5 0 10 -3 10 -12 1 -7 -7 -16 -12
-22 -12 -5 0 -1 6 9 14 11 8 27 12 37 11 10 -2 20 0 23 5 3 5 -4 7 -15 5 -15
-3 -20 1 -20 16 0 11 7 22 15 25 15 6 13 53 -3 78 -10 17 -11 37 -1 30 5 -3 9
-1 9 5 0 5 -6 11 -12 14 -7 2 -1 8 14 12 17 4 25 12 21 21 -3 9 1 14 12 14 10
0 13 -5 9 -12 -4 -7 -3 -8 5 -4 14 9 5 26 -15 26 -13 0 -18 12 -15 33 0 4 -4
7 -11 7 -6 0 -9 3 -6 6 4 3 15 1 26 -5 17 -9 19 -7 14 17 -5 25 -4 26 14 12
16 -12 17 -12 6 0 -7 8 -20 15 -29 15 -9 0 -18 7 -20 15 -4 13 -3 13 6 0 10
-13 12 -13 20 -1 18 28 -4 106 -36 124 -7 5 -11 12 -8 17 3 4 -4 6 -15 3 -11
-3 -20 0 -20 6 0 9 -5 9 -20 1 -11 -6 -19 -14 -16 -18 2 -4 -4 -8 -15 -8 -10
0 -19 4 -19 8 0 4 7 8 15 8 9 0 15 9 14 23 -1 17 -2 18 -6 4 -2 -9 -9 -15 -14
-11 -5 3 -6 10 -3 16 4 7 2 8 -5 4 -6 -4 -9 -12 -5 -17 3 -6 -5 -8 -21 -5 -18
3 -25 1 -22 -7 2 -7 11 -11 21 -9 16 3 22 -9 9 -21 -3 -4 -17 3 -30 15 -13 12
-23 18 -23 13 0 -4 -10 0 -22 11 -19 15 -20 16 -9 2 15 -21 2 -24 -19 -5 -12
10 -12 9 -1 -5 11 -14 10 -17 -6 -17 -10 0 -29 -2 -43 -3 -16 -2 -24 2 -22 10
1 9 -5 8 -23 -4 -22 -14 -38 -33 -17 -20 5 3 9 -1 9 -9 0 -10 -5 -11 -18 -4
-24 12 -53 1 -39 -16 7 -8 5 -12 -8 -12 -21 0 -42 15 -42 31 0 6 5 3 11 -6 5
-10 15 -18 21 -18 6 0 5 7 -3 17 -10 11 -10 14 -1 9 6 -4 12 -2 12 3 0 15 -40
7 -51 -10 -12 -19 -11 -32 1 -24 6 3 10 1 10 -5 0 -7 -7 -9 -16 -6 -9 4 -24 1
-33 -6 -15 -12 -15 -11 0 7 28 35 32 45 13 38 -14 -5 -16 -3 -11 13 7 19 7 19
-8 0 -8 -11 -15 -25 -15 -30 0 -6 5 -4 11 4 9 13 10 13 6 0 -6 -23 -48 -41
-64 -28 -11 9 -10 13 4 24 10 7 13 14 7 14 -6 0 -14 -3 -18 -7 -11 -12 -50
-10 -58 2 -5 6 -8 4 -9 -5 0 -10 -3 -8 -9 5 -8 19 -9 19 -9 1 -1 -16 -3 -17
-18 -5 -16 13 -17 12 -4 -3 7 -10 18 -15 25 -11 6 4 5 -1 -3 -10 -9 -12 -10
-17 -2 -17 6 0 14 6 17 13 3 8 12 14 21 14 14 0 14 -1 -1 -12 -8 -7 -13 -14
-11 -17 3 -3 -5 -5 -17 -4 -13 1 -22 7 -21 13 2 7 -6 15 -17 18 -11 4 -17 11
-14 17 5 7 2 8 -6 3 -10 -6 -9 -11 6 -23 18 -13 18 -14 -6 -7 -20 6 -23 5 -12
-6 6 -7 12 -17 12 -23 0 -5 -6 -1 -14 9 -8 11 -12 28 -11 37 2 10 0 16 -6 13
-5 -4 -7 -11 -4 -16 4 -5 1 -9 -6 -9 -7 0 -5 -9 7 -22 19 -23 19 -23 -2 -5
-24 20 -41 23 -25 4 8 -10 7 -14 -4 -14 -8 0 -13 2 -10 5 2 3 0 13 -6 24 -8
15 -13 17 -25 8 -7 -7 -11 -17 -8 -22 4 -6 10 -5 15 3 6 10 9 10 9 2 0 -16
-17 -26 -25 -13 -4 7 -13 7 -26 0 -14 -8 -25 -7 -41 5 -13 8 -18 15 -13 16 6
0 18 2 28 4 15 3 16 1 6 -11 -6 -8 -7 -14 -2 -14 10 0 51 29 43 31 -19 5 -80
4 -80 -1 0 -4 -21 -6 -47 -4 -67 3 -65 3 -57 16 4 7 3 8 -5 4 -6 -4 -9 -12 -6
-17 4 -5 -3 -9 -15 -9 -12 0 -18 5 -15 10 3 6 1 10 -4 10 -14 0 -14 -15 -1
-43 11 -22 11 -22 -6 0 -15 21 -18 22 -46 7 -22 -11 -33 -12 -43 -4 -10 8 -14
8 -17 -1 -3 -9 -9 -9 -25 -1 -16 9 -23 9 -26 -1 -3 -6 -4 -2 -4 10 1 12 6 19
12 15 5 -3 20 -6 32 -7 12 0 25 -3 29 -7 13 -14 27 -8 15 6 -8 10 -9 16 -1 21
5 3 10 12 10 18 0 7 -5 4 -11 -6 -6 -9 -14 -15 -20 -12 -5 4 -9 2 -9 -4 0 -6
-11 -6 -30 -1 -17 5 -34 9 -38 10 -4 1 -6 5 -5 9 1 4 -5 8 -12 8 -10 0 -12 -4
-5 -12 8 -9 4 -12 -15 -12 -13 0 -22 3 -20 8 3 4 1 11 -5 14 -6 4 -9 1 -8 -6
2 -6 -3 -14 -11 -17 -8 -2 -11 0 -7 6 3 6 1 14 -5 18 -8 4 -9 3 -5 -4 12 -19
-25 -14 -40 6 -13 15 -13 14 -5 -8 5 -16 16 -25 30 -26 12 -1 25 -5 29 -9 4
-5 -1 -5 -10 -2 -10 4 -18 3 -18 -1 0 -4 -10 -8 -22 -9 -13 0 -17 1 -10 4 6 3
9 9 6 14 -3 6 -11 5 -20 -2 -8 -6 -14 -7 -14 -2 0 5 -9 9 -20 10 -11 1 -18 -2
-16 -6 3 -4 -1 -8 -9 -8 -12 0 -12 4 2 19 11 12 19 15 21 8 3 -8 9 -7 20 2 12
10 14 10 8 1 -4 -8 -2 -13 4 -13 7 0 10 6 7 13 -2 6 -18 11 -35 11 -18 -1 -30
2 -27 6 3 5 1 12 -5 15 -6 4 -9 1 -8 -7 2 -7 -3 -12 -10 -10 -7 1 -20 3 -30 5
-9 1 -21 5 -27 8 -5 3 -27 5 -47 3 -24 -1 -36 2 -34 9 1 7 1 8 -2 4 -2 -4 -11
0 -19 10 -12 15 -12 13 1 -9 14 -24 14 -27 -2 -40 -15 -11 -16 -11 -4 3 10 14
10 18 -5 24 -10 5 -26 7 -35 6 -10 -1 -28 7 -40 18 -15 14 -25 18 -32 11 -13
-13 -29 -13 -21 0 3 6 1 10 -4 10 -14 0 -14 -16 -1 -40 7 -14 6 -18 -5 -16 -8
1 -18 6 -22 11 -4 4 -2 5 5 1 14 -9 17 10 2 19 -6 4 -8 10 -5 14 2 5 -9 7 -25
5 -22 -3 -28 0 -24 11 8 21 1 19 -16 -4z m28 -19 c13 11 14 11 7 -1 -6 -11 -4
-13 9 -8 10 4 15 3 11 -3 -8 -13 -48 -6 -51 9 -2 7 0 7 3 1 3 -7 10 -7 21 2z
m101 -13 c-22 -14 -33 -10 -19 6 7 8 17 12 22 9 6 -4 5 -10 -3 -15z m1548 -10
c-8 -13 -15 -15 -24 -7 -8 7 -13 7 -13 0 0 -5 -8 -13 -17 -16 -15 -6 -15 -5 1
13 10 11 24 17 34 14 9 -4 13 -2 9 4 -3 5 0 10 7 10 11 0 12 -4 3 -18z m143
17 c0 -3 -4 -8 -10 -11 -5 -3 -10 -1 -10 4 0 6 5 11 10 11 6 0 10 -2 10 -4z
m-261 -29 c12 -15 12 -17 -3 -11 -9 3 -16 13 -16 22 0 8 1 13 3 11 1 -2 9 -12
16 -22z m46 3 c-10 -11 -21 -18 -23 -15 -3 3 3 12 14 20 27 20 30 18 9 -5z
m244 4 c3 2 17 -11 29 -30 21 -31 21 -33 3 -22 -11 6 -17 16 -15 20 3 4 -6 13
-20 19 -14 7 -22 17 -19 22 5 8 8 7 11 -1 2 -7 7 -10 11 -8z m-1699 -4 c0 -5
8 -7 18 -4 14 5 15 4 2 -5 -9 -6 -19 -6 -24 -1 -4 4 -16 6 -25 3 -14 -4 -14
-3 -1 6 19 13 30 14 30 1z m57 -15 c-15 -16 -19 -13 -11 9 3 9 10 13 15 10 5
-3 3 -11 -4 -19z m66 -2 c-6 -16 -5 -16 11 -3 10 8 24 15 32 16 15 2 40 -34
30 -44 -3 -3 -6 -1 -6 5 0 6 -20 10 -49 8 -47 -3 -48 -2 -33 16 20 24 23 24
15 2z m-381 -20 c-6 -3 -9 -10 -6 -15 4 -7 2 -8 -5 -4 -8 6 -9 12 -2 20 6 7 9
15 7 18 -1 3 2 1 8 -4 8 -8 7 -12 -2 -15z m1628 1 c0 -2 -9 0 -20 6 -11 6 -20
13 -20 16 0 2 9 0 20 -6 11 -6 20 -13 20 -16z m-1121 -1 c-6 -7 -19 -12 -28
-12 -13 1 -13 2 2 6 9 2 15 8 13 12 -3 4 1 8 9 8 11 0 12 -4 4 -14z m885 -25
c-9 -14 -23 2 -17 18 4 12 8 13 14 3 4 -7 5 -17 3 -21z m-704 8 c0 -2 -7 -9
-15 -16 -13 -11 -14 -10 -9 4 5 14 24 23 24 12z m50 -7 c0 -5 -5 -7 -10 -4 -6
4 -18 1 -26 -6 -12 -10 -13 -9 -8 5 7 18 44 22 44 5z m280 -2 c0 -5 -7 -7 -15
-4 -8 4 -17 2 -20 -2 -9 -15 -44 -20 -38 -5 2 7 12 10 20 7 9 -4 14 -2 10 3
-3 6 5 10 19 10 13 0 24 -4 24 -9z m33 -13 c-4 -12 -8 -13 -14 -3 -9 15 -2 32
11 24 5 -3 6 -13 3 -21z m942 6 c10 -11 14 -20 9 -20 -5 0 -15 9 -22 20 -7 11
-11 20 -9 20 2 0 12 -9 22 -20z m-2005 -5 c7 -9 8 -15 2 -15 -5 0 -12 7 -16
15 -3 8 -4 15 -2 15 2 0 9 -7 16 -15z m20 -49 c0 -3 -4 -8 -10 -11 -5 -3 -10
-1 -10 4 0 6 5 11 10 11 6 0 10 -2 10 -4z m-3 -33 c-4 -3 -1 -13 6 -21 8 -11
8 -14 0 -9 -6 4 -13 1 -16 -5 -2 -7 -4 -1 -4 15 0 15 4 27 10 27 6 0 7 -3 4
-7z m1968 -73 c-3 -6 -12 -10 -18 -10 -9 0 -8 3 1 8 7 5 10 17 7 28 -6 17 -6
18 5 1 6 -9 8 -22 5 -27z m-1965 -32 c0 -4 -4 -8 -9 -8 -6 0 -12 4 -15 8 -3 5
1 9 9 9 8 0 15 -4 15 -9z m20 -17 c0 -5 -7 -12 -16 -15 -14 -5 -15 -4 -4 9 14
17 20 19 20 6z m-1 -28 c-1 -5 0 -10 1 -13 14 -36 -7 -49 -33 -20 -10 12 -9
12 5 2 10 -8 19 -9 22 -3 3 5 1 11 -6 13 -6 2 -8 10 -4 16 8 13 17 16 15 5z
m1931 -33 c6 -11 7 -20 2 -20 -6 0 -12 9 -15 20 -3 11 -3 20 -1 20 2 0 8 -9
14 -20z m-8 -46 c-12 -8 -23 -25 -23 -37 -1 -18 -2 -19 -6 -4 -5 19 22 57 41
57 6 0 0 -7 -12 -16z m-1912 -38 c-7 -7 -14 -6 -21 1 -9 9 -7 12 9 10 14 -1
18 -5 12 -11z m1890 -66 c0 -5 -5 -10 -11 -10 -5 0 -7 5 -4 10 3 6 8 10 11 10
2 0 4 -4 4 -10z m-10 -24 c0 -3 -4 -8 -10 -11 -5 -3 -10 -1 -10 4 0 6 5 11 10
11 6 0 10 -2 10 -4z m-1837 -59 c3 -8 -1 -14 -8 -14 -7 0 -11 6 -8 14 3 7 6
13 8 13 2 0 5 -6 8 -13z m1 -35 c2 -4 -4 -8 -14 -8 -10 0 -16 4 -14 8 3 4 9 8
14 8 5 0 11 -4 14 -8z m1827 -45 c-6 -8 -9 -17 -6 -21 3 -3 -1 -1 -7 4 -10 9
-10 13 2 20 21 13 24 12 11 -3z m-21 -27 c0 -5 -4 -10 -10 -10 -5 0 -10 5 -10
10 0 6 5 10 10 10 6 0 10 -4 10 -10z m-1765 -100 c3 -5 1 -10 -4 -10 -6 0 -11
5 -11 10 0 6 2 10 4 10 3 0 8 -4 11 -10z m-19 -46 c3 -16 2 -26 -1 -23 -3 4
-8 19 -11 35 -3 16 -2 26 1 23 3 -4 8 -19 11 -35z m-36 -34 c0 -5 -2 -10 -4
-10 -3 0 -8 5 -11 10 -3 6 -1 10 4 10 6 0 11 -4 11 -10z m-80 -114 c0 -3 -4
-8 -10 -11 -5 -3 -10 -1 -10 4 0 6 5 11 10 11 6 0 10 -2 10 -4z m1784 -124 c3
-5 -1 -9 -9 -9 -8 0 -12 4 -9 9 3 4 7 8 9 8 2 0 6 -4 9 -8z m25 -29 c-7 -10
-14 -19 -15 -21 -1 -2 -4 4 -8 13 -3 9 -2 13 3 10 5 -3 12 -1 16 5 3 5 9 10
12 10 3 0 -1 -8 -8 -17z m-55 -73 c-6 -6 -10 -3 -10 10 0 13 4 16 10 10 7 -7
7 -13 0 -20z m-1657 -65 c0 -8 -4 -12 -9 -9 -5 3 -6 10 -3 15 9 13 12 11 12
-6z m1613 -35 c0 -5 -5 -10 -11 -10 -5 0 -7 5 -4 10 3 6 8 10 11 10 2 0 4 -4
4 -10z m-1410 -14 c0 -2 -8 -10 -17 -17 -16 -13 -17 -12 -4 4 13 16 21 21 21
13z m1372 -100 c5 3 4 -3 -4 -15 -15 -25 -40 -37 -31 -15 3 7 9 14 14 14 4 0
7 6 5 13 -1 6 -1 9 1 4 3 -4 9 -4 15 -1z m-1328 -38 c-3 -4 -9 -8 -15 -8 -5 0
-9 4 -9 8 0 5 7 9 15 9 8 0 12 -4 9 -9z m13 -30 c0 -13 -1 -18 -4 -11 -2 7
-10 10 -18 7 -7 -3 -16 -1 -20 5 -3 6 0 9 8 5 8 -3 18 -1 22 5 9 15 11 14 12
-11z m1263 -72 c-7 -7 -14 -6 -22 3 -11 10 -9 11 7 5 16 -6 18 -5 8 7 -7 7
-13 18 -13 24 0 5 7 1 15 -9 10 -13 12 -23 5 -30z m-50 -88 c0 -11 -31 -38
-43 -37 -8 0 -8 2 1 6 6 2 10 9 6 14 -3 5 0 8 8 7 8 -2 12 6 10 22 -2 19 0 22
8 10 5 -8 10 -18 10 -22z m-1070 -102 c0 -3 -4 -8 -10 -11 -5 -3 -10 -1 -10 4
0 6 5 11 10 11 6 0 10 -2 10 -4z m0 -31 c-7 -9 -15 -13 -19 -10 -3 3 1 10 9
15 21 14 24 12 10 -5z m965 -45 c4 -6 -1 -7 -12 -4 -17 5 -17 5 -1 -9 10 -8
15 -17 11 -20 -8 -8 -33 25 -27 35 7 11 22 10 29 -2z m-33 -42 c-12 -12 -35
-1 -27 12 3 5 13 6 21 3 10 -4 12 -9 6 -15z m-867 -18 c-10 -11 -21 -17 -24
-14 -3 3 3 12 13 20 28 20 32 17 11 -6z m692 -145 c0 -8 -4 -15 -9 -15 -10 0
-11 14 -1 23 9 10 10 9 10 -8z m33 11 c0 -3 -4 -8 -10 -11 -5 -3 -10 -1 -10 4
0 6 5 11 10 11 6 0 10 -2 10 -4z m-510 -46 c0 -5 -5 -10 -11 -10 -5 0 -7 5 -4
10 3 6 8 10 11 10 2 0 4 -4 4 -10z m380 -14 c0 -2 -8 -10 -17 -17 -16 -13 -17
-12 -4 4 13 16 21 21 21 13z m-307 -19 c7 3 9 3 5 -2 -4 -4 -4 -13 2 -19 6 -8
3 -12 -8 -12 -11 0 -17 9 -18 26 -1 14 1 19 3 12 3 -6 10 -9 16 -5z m84 -30
c0 -8 -6 -14 -13 -14 -7 0 -10 6 -7 14 7 17 20 17 20 0z m43 -10 c11 -5 9 -6
-4 -4 -11 1 -21 9 -23 17 -3 10 -2 11 4 4 4 -6 15 -14 23 -17z"/>
<path d="M610 2370 c-9 -6 -10 -10 -3 -10 6 0 15 5 18 10 8 12 4 12 -15 0z"/>
<path d="M1898 2358 c5 -5 16 -8 23 -6 8 3 3 7 -10 11 -17 4 -21 3 -13 -5z"/>
<path d="M1710 2340 c-9 -6 -10 -10 -3 -10 6 0 15 5 18 10 8 12 4 12 -15 0z"/>
<path d="M1100 2316 c7 -7 13 -7 20 0 6 6 3 10 -10 10 -13 0 -16 -4 -10 -10z"/>
<path d="M1346 2322 c-3 -5 1 -9 9 -9 8 0 12 4 9 9 -3 4 -7 8 -9 8 -2 0 -6 -4
-9 -8z"/>
<path d="M1500 2327 c0 -2 6 -10 14 -16 11 -9 16 -9 22 1 4 7 4 10 -1 6 -4 -4
-14 -3 -22 3 -7 6 -13 9 -13 6z"/>
<path d="M1747 2313 c-13 -13 -7 -21 13 -16 11 3 17 9 14 14 -6 11 -18 12 -27
2z"/>
<path d="M1190 2298 c0 -5 -4 -6 -10 -3 -5 3 -10 1 -10 -4 0 -15 12 -14 34 2
16 12 16 14 2 14 -9 0 -16 -4 -16 -9z"/>
<path d="M2295 2070 c3 -5 11 -10 16 -10 6 0 7 5 4 10 -3 6 -11 10 -16 10 -6
0 -7 -4 -4 -10z"/>
<path d="M2285 2041 c-3 -5 -1 -12 5 -16 5 -3 10 -1 10 5 0 6 5 8 12 4 7 -4 8
-3 4 4 -9 14 -23 15 -31 3z"/>
<path d="M2309 1997 c6 -8 7 -18 3 -22 -4 -5 -2 -5 5 -1 14 8 6 36 -9 36 -7 0
-6 -5 1 -13z"/>
<path d="M2285 1930 c-3 -6 1 -7 9 -4 18 7 21 14 7 14 -6 0 -13 -4 -16 -10z"/>
<path d="M350 1793 c5 -2 8 -9 4 -14 -3 -5 0 -9 6 -9 15 0 7 23 -8 26 -7 1 -8
0 -2 -3z"/>
<path d="M382 1651 c10 -16 15 -17 26 -8 12 9 11 12 -5 18 -30 12 -34 10 -21
-10z"/>
<path d="M2049 1053 c-1 -5 -1 -11 0 -15 0 -4 -11 -16 -25 -27 -23 -18 -26
-50 -3 -35 5 3 7 9 4 14 -3 5 2 13 10 17 14 8 30 53 19 53 -2 0 -5 -3 -5 -7z"/>
<path d="M550 1029 c0 -5 5 -7 10 -4 6 3 10 8 10 11 0 2 -4 4 -10 4 -5 0 -10
-5 -10 -11z"/>
<path d="M587 961 c-3 -14 -1 -18 9 -14 8 3 14 11 14 19 0 21 -17 17 -23 -5z"/>
<path d="M576 922 c-3 -5 1 -9 9 -9 8 0 12 4 9 9 -3 4 -7 8 -9 8 -2 0 -6 -4
-9 -8z"/>
<path d="M1787 560 c-3 -12 0 -20 7 -20 6 0 12 9 13 20 1 11 -2 20 -6 20 -5 0
-11 -9 -14 -20z"/>
<path d="M1820 559 c0 -5 5 -7 10 -4 6 3 10 8 10 11 0 2 -4 4 -10 4 -5 0 -10
-5 -10 -11z"/>
<path d="M817 525 c-8 -8 -18 -11 -23 -7 -5 4 -2 -1 5 -10 7 -10 17 -15 22
-12 5 3 9 0 9 -5 0 -6 5 -11 11 -11 8 0 8 5 -1 15 -7 8 -10 22 -6 30 7 19 2
19 -17 0z"/>
<path d="M1700 440 c0 -5 7 -10 16 -10 8 0 12 5 9 10 -3 6 -10 10 -16 10 -5 0
-9 -4 -9 -10z"/>
<path d="M1745 440 c-3 -6 1 -7 9 -4 18 7 21 14 7 14 -6 0 -13 -4 -16 -10z"/>
<path d="M1066 242 c-2 -4 9 -8 25 -8 33 -2 33 4 1 11 -12 2 -24 1 -26 -3z"/>
</g>
</svg>
